<svg xmlns="http://www.w3.org/2000/svg" version="1.1" xmlns:xlink="http://www.w3.org/1999/xlink" width="1000" height="1000"><g clip-path="url(#SvgjsClipPath1008)"><rect width="1000" height="1000" fill="#ffffff"></rect><g transform="matrix(3.5,0,0,3.5,150,150)"><svg xmlns="http://www.w3.org/2000/svg" version="1.1" xmlns:xlink="http://www.w3.org/1999/xlink" width="200" height="200"><svg xmlns="http://www.w3.org/2000/svg" version="1.1" xmlns:xlink="http://www.w3.org/1999/xlink" viewBox="0 0 200 200"><rect width="200" height="200" fill="url('#gradient')"></rect><defs><linearGradient id="gradient" gradientTransform="rotate(243 0.5 0.5)"><stop offset="0%" stop-color="#f1eee5"></stop><stop offset="100%" stop-color="#d5c3a1"></stop></linearGradient><clipPath id="SvgjsClipPath1008"><rect width="1000" height="1000" x="0" y="0" rx="350" ry="350"></rect></clipPath></defs><g><g fill="#1d425b" transform="matrix(1.9687390761548065,0,0,1.9687390761548065,20.885671672910334,109.79506228705321)" stroke="#0571ff" stroke-width="0.6"><path d="M9.89-8.57L9.89-6.03L4.50-6.03L4.50-2.64L10.87-2.64L10.87 0L1.07 0L1.07-14.22L10.89-14.22L10.89-11.57L4.50-11.57L4.50-8.57L9.89-8.57ZM14.43-10.57L16.07-3.92L17.74-10.57L21.21-10.57L17.76 0L14.40 0L10.96-10.57L14.43-10.57ZM27.18 0.20L27.18 0.20Q24.75 0.20 23.24-1.25Q21.74-2.71 21.74-5.03L21.74-5.03L21.74-5.30Q21.74-6.92 22.34-8.16Q22.94-9.40 24.09-10.08Q25.24-10.76 26.83-10.76L26.83-10.76Q29.05-10.76 30.34-9.38Q31.63-8.00 31.63-5.53L31.63-5.53L31.63-4.25L25.09-4.25Q25.26-3.36 25.86-2.85Q26.46-2.34 27.40-2.34L27.40-2.34Q28.96-2.34 29.84-3.44L29.84-3.44L31.35-1.66Q30.73-0.81 29.60-0.31Q28.48 0.20 27.18 0.20ZM26.81-8.22L26.81-8.22Q25.36-8.22 25.09-6.31L25.09-6.31L28.41-6.31L28.41-6.56Q28.43-7.35 28.01-7.79Q27.59-8.22 26.81-8.22ZM32.89-10.57L35.98-10.57L36.08-9.33Q37.18-10.76 39.10-10.76L39.10-10.76Q40.75-10.76 41.57-9.78Q42.38-8.79 42.41-6.81L42.41-6.81L42.41 0L39.11 0L39.11-6.67Q39.11-7.47 38.79-7.85Q38.47-8.22 37.62-8.22L37.62-8.22Q36.65-8.22 36.18-7.46L36.18-7.46L36.18 0L32.89 0L32.89-10.57ZM44.78-13.19L48.07-13.19L48.07-10.57L49.80-10.57L49.80-8.28L48.07-8.28L48.07-3.45Q48.07-2.85 48.28-2.62Q48.50-2.38 49.13-2.38L49.13-2.38Q49.62-2.38 49.95-2.44L49.95-2.44L49.95-0.09Q49.06 0.20 48.10 0.20L48.10 0.20Q46.40 0.20 45.59-0.61Q44.78-1.41 44.78-3.04L44.78-3.04L44.78-8.28L43.43-8.28L43.43-10.57L44.78-10.57L44.78-13.19ZM50.40-4.82L50.39-5.38Q50.39-6.96 51.01-8.20Q51.62-9.43 52.77-10.10Q53.93-10.76 55.48-10.76L55.48-10.76Q57.85-10.76 59.22-9.29Q60.59-7.82 60.59-5.29L60.59-5.29L60.59-5.18Q60.59-2.71 59.21-1.25Q57.84 0.20 55.50 0.20L55.50 0.20Q53.24 0.20 51.88-1.16Q50.51-2.51 50.40-4.82L50.40-4.82ZM53.69-5.77L53.68-5.18Q53.68-3.71 54.14-3.03Q54.60-2.34 55.50-2.34L55.50-2.34Q57.26-2.34 57.29-5.05L57.29-5.05L57.29-5.38Q57.29-8.22 55.48-8.22L55.48-8.22Q53.83-8.22 53.69-5.77L53.69-5.77ZM68.49-10.64L68.43-7.59L67.34-7.67Q65.79-7.67 65.35-6.69L65.35-6.69L65.35 0L62.06 0L62.06-10.57L65.15-10.57L65.25-9.21Q66.08-10.76 67.57-10.76L67.57-10.76Q68.10-10.76 68.49-10.64L68.49-10.64ZM72.34-10.57L74.01-4.61L75.77-10.57L79.30-10.57L74.99 1.77L74.80 2.22Q73.89 4.27 71.56 4.27L71.56 4.27Q70.92 4.27 70.21 4.07L70.21 4.07L70.21 1.72L70.63 1.72Q71.33 1.72 71.69 1.52Q72.06 1.32 72.24 0.80L72.24 0.80L72.50 0.10L68.83-10.57L72.34-10.57Z"></path></g></g></svg></svg></g></g></svg>